:SAMPLES-PER-SECOND 30
:FULLY-SPECIFIED
:DEGREES
411
root  5.60091 36.8626 -42.2661 40.9109 -80.1054 -44.0038
RightUpLeg  -14.7166 -0.865295 -8.58895
RightLeg  31.6946 -1.79537 -1.43113
RightFoot  -8.20572 -0.57176 18.6503
RightToes  1.16414e-010 0 -3.6325e-017
Spine  25.1226 1.15531 1.13757
Spine1  1.85273 -0.59042 11.064
HEad  -29.8871 5.89757 -13.6522
LeftShoulder1  2.05722 -6.26395 -14.1534
LeftArm  41.283 31.8024 -34.4825
LeftForeArm  15.7548 -7.6597 -16.6625
LeftHand  -1.32805 13.6749 -16.7296
RightShoulder  0.175715 -2.44346 9.48579
RightArm  -74.3411 -3.68201 8.69208
RightForeArm  -63.1557 31.718 9.92043
RightHand  0.373853 -6.59133 -34.5027
LeftUpLeg  -9.11538 -4.27056 24.8569
LeftLeg  47.6859 17.8887 20.1961
LeftFoot  -2.55293 0.735626 -9.44061
LeftToes  7.09373e-011 9.9627e-011 8.96859e-012
412
root  5.33195 37.4898 -43.1772 36.3287 -80.0484 -39.5017
RightUpLeg  -12.5533 -2.00166 -7.43119
RightLeg  28.4383 -2.65169 -1.79041
RightFoot  -7.09882 -0.705324 17.7475
RightToes  1.16414e-010 0 -3.6325e-017
Spine  25.0461 0.740503 0.0415226
Spine1  0.850724 -1.18116 11.2233
HEad  -29.9295 7.56068 -14.1173
LeftShoulder1  2.0309 -6.33002 -13.7026
LeftArm  45.2521 32.7864 -32.3822
LeftForeArm  14.351 -9.31624 -15.9859
LeftHand  -1.3268 13.4896 -17.097
RightShoulder  0.189561 -2.41953 10.431
RightArm  -68.8518 -7.3562 14.5494
RightForeArm  -45.9999 48.9687 15.6537
RightHand  0.556275 -6.95307 -38.9192
LeftUpLeg  -11.4979 0.147535 21.3799
LeftLeg  50.6966 11.0827 14.5685
LeftFoot  -3.59981 0.946109 -13.5729
LeftToes  7.09373e-011 9.9627e-011 8.96859e-012
413
root  5.17646 38.2226 -43.8395 35.5735 -80.4339 -38.1391
RightUpLeg  -11.3642 -2.99431 -6.47244
RightLeg  24.5828 -2.73703 -1.59744
RightFoot  -3.31567 -1.18624 16.4131
RightToes  1.16414e-010 0 -3.6325e-017
Spine  24.7326 0.296905 0.0843026
Spine1  -0.785684 -1.30595 10.0303
HEad  -29.2174 9.14959 -14.6933
LeftShoulder1  2.02245 -6.62778 -12.9459
LeftArm  49.9811 33.8914 -30.9222
LeftForeArm  11.8593 -11.3251 -15.0038
LeftHand  -1.39774 13.826 -17.3262
RightShoulder  0.314809 -1.85226 12.1282
RightArm  -59.7066 -11.6642 17.9762
RightForeArm  -18.7597 65.6908 28.4086
RightHand  0.443652 -6.59346 -37.0393
LeftUpLeg  -14.1931 5.18967 16.6438
LeftLeg  54.4394 6.69107 10.4675
LeftFoot  -3.25889 1.23511 -17.0828
LeftToes  7.09373e-011 9.9627e-011 8.96859e-012
414
root  5.04462 38.9903 -44.3285 38.1 -81.8691 -39.7895
RightUpLeg  -10.7733 -1.76556 -6.13907
RightLeg  20.5539 -2.52926 -1.27176
RightFoot  1.77141 -1.91495 16.6276
RightToes  1.16414e-010 0 -3.6325e-017
Spine  23.5755 0.301153 -0.0735494
Spine1  -1.31688 -1.11506 8.67666
HEad  -28.874 10.5367 -16.1406
LeftShoulder1  2.09069 -7.27921 -12.3109
LeftArm  54.1555 34.7703 -30.8164
LeftForeArm  9.02593 -13.1678 -13.9593
LeftHand  -1.30164 13.3028 -17.1525
RightShoulder  0.453356 -1.22317 13.0554
RightArm  -46.1166 -13.4811 20.7058
RightForeArm  22.7832 75.9104 54.2192
RightHand  -0.228554 -5.02733 -21.1761
LeftUpLeg  -16.0621 9.78091 10.8124
LeftLeg  56.8785 4.26586 7.56243
LeftFoot  -1.78346 1.60556 -18.9386
LeftToes  7.09373e-011 9.9627e-011 8.96859e-012
415
root  4.88103 39.6125 -44.6885 44.8628 -83.5933 -46.0687
RightUpLeg  -10.3179 -0.0782485 -5.82499
RightLeg  17.4659 -3.55718 -1.63651
RightFoot  5.77107 -2.34662 15.8275
RightToes  1.16414e-010 0 -3.6325e-017
Spine  21.7139 0.33805 -0.311281
Spine1  -0.295043 -1.08321 7.98096
HEad  -28.987 12.0837 -17.6462
LeftShoulder1  2.03392 -7.36343 -11.5558
LeftArm  51.989 34.9453 -32.4026
LeftForeArm  10.9501 -13.0846 -13.8387
LeftHand  -0.903677 11.1187 -16.1904
RightShoulder  0.492495 -0.920253 12.1146
RightArm  -30.8617 -14.6737 29.7275
RightForeArm  65.6633 79.1439 87.5512
RightHand  0.0806445 -6.16962 -2.51987
LeftUpLeg  -16.0926 12.8295 5.09844
LeftLeg  56.7836 2.49811 4.67537
LeftFoot  1.99815 2.29462 -19.5486
LeftToes  7.09373e-011 9.9627e-011 8.96859e-012
